<?xml version="1.0" encoding="UTF-8"?>
<svg xmlns="http://www.w3.org/2000/svg" viewBox="0 0 909.3 982.47">
  <defs>
    <style>
      .cls-1 {
        isolation: isolate;
      }

      .cls-2 {
        mix-blend-mode: multiply;
      }

      .cls-3 {
        fill: #006eff;
      }

      .cls-4 {
        fill: red;
      }
    </style>
  </defs>
  <g class="cls-1">
    <g id="_图层_2" data-name="图层 2">
      <g id="_图层_1-2" data-name="图层 1">
        <path class="cls-4" d="M71.17,567.31c-2.21,0-4.42-.81-6.16-2.44-1.64-1.54-3.25-3.22-4.79-4.99-24.66-28.28-25.72-69.05-3.06-117.9,16.82-36.26,41.42-66.24,48.57-74.57,3.24-3.77,8.92-4.21,12.69-.97,3.77,3.24,4.21,8.92.97,12.69-9.79,11.41-94.25,113.13-45.6,168.93,1.15,1.33,2.35,2.57,3.55,3.7,3.62,3.4,3.8,9.1.4,12.72-1.77,1.89-4.16,2.84-6.56,2.84Z"/>
        <path class="cls-4" d="M227.78,384.63c-3.08,0-6.08-1.58-7.76-4.43-2.52-4.28-1.1-9.8,3.18-12.32,8.12-4.79,16.26-9.39,24.21-13.68,78.1-42.2,146.4-59.35,162.4-40.78,3.05,3.54,4.38,8,3.71,12.56-1.27,8.75-9.24,17.26-26.66,28.45-4.18,2.69-9.75,1.47-12.44-2.71-2.69-4.18-1.47-9.75,2.71-12.44,12-7.71,16.28-12.35,17.79-14.5-4.21-1.22-16.21-2.01-39.86,4.04-19.79,5.06-53.04,16.32-99.1,41.21-7.75,4.19-15.7,8.68-23.63,13.35-1.44.85-3.01,1.25-4.56,1.25Z"/>
        <path class="cls-4" d="M355.01,420.74c-3.55,0-6.92-2.12-8.34-5.61-1.88-4.6.34-9.86,4.94-11.73,18.74-7.63,39.96-19.54,55.39-31.08,22.49-16.82,22.25-24.44,22.23-24.54h0s-.07-.12-.29-.34h0s-7.57-4.81-47.28,9.04c-22.69,7.92-48.11,19.26-64.33,27.23-4.46,2.19-9.85.35-12.05-4.11-2.19-4.46-.35-9.85,4.11-12.05,17.18-8.44,44.02-20.39,67.84-28.59,44.8-15.43,57.78-10.56,64.08-4.6,4.84,4.58,6.82,10.77,5.57,17.43-4.95,26.38-61.75,57.39-88.48,68.28-1.11.45-2.26.67-3.39.67Z"/>
        <path class="cls-4" d="M689.1,672.42c-.49,0-.99-.04-1.48-.12-4.9-.81-8.22-5.45-7.41-10.35,10.26-61.83,16.18-164.59,2.02-267.57-7.55-54.91-19.98-104.36-36.93-146.99-19.33-48.61-44.58-88.24-75.04-117.81-3.57-3.46-3.65-9.16-.19-12.73,3.46-3.57,9.16-3.65,12.73-.19,32.3,31.35,58.95,73.09,79.23,124.08,17.49,43.97,30.29,94.84,38.04,151.19,14.44,104.97,8.39,209.83-2.09,272.97-.73,4.4-4.55,7.53-8.87,7.53Z"/>
        <path class="cls-4" d="M111.54,396.67c-.1,0-.21,0-.31,0-4.97-.17-8.86-4.33-8.69-9.29.06-1.87,1.7-46.36,17.12-103.36,9.08-33.54,21.07-64.41,35.66-91.74,18.35-34.4,40.89-63.29,66.97-85.87,18.64-16.15,39.4-29.29,61.69-39.06,38.16-16.75,81.86-24.09,129.86-21.83,35.54,1.68,68.57,9.31,98.19,22.7,4.53,2.05,6.54,7.38,4.5,11.91-2.05,4.53-7.37,6.54-11.91,4.5-27.54-12.44-58.37-19.55-91.63-21.12-45.21-2.13-86.18,4.71-121.78,20.34-20.64,9.05-39.86,21.22-57.14,36.18-55.35,47.91-83.26,117.96-96.92,168.29-14.95,55.06-16.61,99.24-16.62,99.68-.17,4.86-4.16,8.69-8.99,8.69Z"/>
        <path class="cls-4" d="M520.35,342.14c-22.13,0-33.26-4.48-50.09-11.26-18.81-7.57-44.58-17.95-103.23-29.96-107.92-22.1-193.96,13.05-194.81,13.41-4.59,1.91-9.86-.25-11.77-4.83-1.92-4.58.23-9.85,4.81-11.77.93-.39,23.32-9.69,59.89-16.14,33.62-5.93,86.15-10.45,145.49,1.7,60.25,12.34,87.99,23.51,106.34,30.89,15.94,6.42,24.72,9.95,43.37,9.95,4.97,0,9,4.03,9,9s-4.03,9-9,9Z"/>
        <path class="cls-4" d="M189.64,308c-.54,0-1.09-.05-1.64-.15-4.89-.9-8.12-5.59-7.23-10.48,4.83-26.28,14.73-41.45,28.63-43.86,14.83-2.57,29.22,8.71,39.48,30.96,2.08,4.51.11,9.86-4.4,11.94-4.52,2.08-9.86.11-11.94-4.4-5.15-11.17-13.35-21.92-20.06-20.76-4.43.77-10.48,10.15-14.01,29.38-.8,4.34-4.58,7.38-8.84,7.38Z"/>
        <path class="cls-4" d="M502.22,340.76s-.09,0-.14,0c-4.97-.08-8.94-4.17-8.86-9.14.41-26.77-3.72-43.13-7.99-47.47-.72-.74-1.06-.74-1.31-.74-7.75,0-19.4,13.25-28.99,32.96-2.17,4.47-7.56,6.33-12.03,4.16-4.47-2.17-6.33-7.56-4.16-12.03,17.31-35.62,34.12-43.09,45.17-43.09,5.31,0,10.2,2.11,14.14,6.1,11.47,11.64,13.49,39.26,13.16,60.38-.08,4.92-4.09,8.86-9,8.86Z"/>
        <path class="cls-4" d="M268.48,220.41c-.5,0-1-.02-1.51-.08-8.24-.82-14.26-8.18-13.43-16.42l4.95-49.52c.82-8.24,8.18-14.26,16.42-13.43,8.24.82,14.26,8.18,13.43,16.42l-4.95,49.52c-.77,7.74-7.3,13.51-14.91,13.51Z"/>
        <path class="cls-4" d="M422.85,225.83c-.4,0-.81-.02-1.22-.05-8.26-.66-14.42-7.9-13.75-16.15l4.41-54.94c.66-8.26,7.91-14.41,16.15-13.75,8.26.66,14.42,7.9,13.75,16.15l-4.41,54.94c-.63,7.85-7.2,13.8-14.94,13.8Z"/>
        <path class="cls-4" d="M228.19,122.2c-3.04,0-6.01-1.54-7.7-4.33-20.33-33.46-11.93-73.09,1.44-96.86,4.41-7.85,13.4-21.01,24.01-21.01,11.74,0,16.49,11.94,21.98,25.78,5.4,13.58,12.11,30.48,25.8,43.21,3.64,3.39,3.84,9.08.46,12.72-3.38,3.64-9.08,3.84-12.72.46-16.66-15.5-24.52-35.29-30.26-49.75-1.77-4.47-4.06-10.23-5.83-13.22-3.69,3.49-10.39,12.89-14.96,27.56-4.06,13.03-8.74,38.38,5.46,61.77,2.58,4.25,1.23,9.78-3.02,12.36-1.46.89-3.07,1.31-4.66,1.31Z"/>
        <path class="cls-4" d="M550.12,144.78c-27.13,0-53.46-24.55-58.87-46.5-3.16-12.79,1.11-23.65,11.41-29.06h0c36.48-19.17,45.18-37.29,49.85-47.02,2.7-5.63,6.07-12.63,14.43-12.63s16.22,8.62,22.2,25.61c4.88,13.88,7.68,30.63,7.68,45.94,0,39.26-17.89,63.65-46.69,63.65ZM568.01,31.5c-5.47,11.26-17.08,32.68-56.98,53.66h0c-1.19.62-3.97,2.08-2.3,8.82,3.22,13.06,21.38,32.81,41.4,32.81,25.9,0,28.69-31.92,28.69-45.65,0-21.69-6.12-41-10.8-49.64ZM506.84,77.19h0,0Z"/>
        <g class="cls-2">
          <path class="cls-3" d="M567.92,152.49c-4.97,0-9-4.03-9-9s3.74-8.7,8.45-8.98c.03-.05.07-.11.1-.17,1.66-2.76,3.42-8.39,3.97-16.54-7.02,5.46-14.88,10.67-23.47,15.55-4.32,2.46-9.82.94-12.27-3.38-2.46-4.32-.94-9.82,3.38-12.27,11.26-6.4,21.06-13.35,29.11-20.65,3.67-3.33,8.81-4.23,13.42-2.35,4.51,1.84,7.5,5.97,7.79,10.78.14,2.35.21,4.7.21,7,0,12.88-2.39,23.94-6.72,31.13-4.7,7.81-10.21,8.86-14.97,8.86Z"/>
        </g>
        <path class="cls-4" d="M573.84,629.35c-4.24,0-8.02-3.01-8.83-7.33-.92-4.88,2.29-9.59,7.17-10.52,97.2-18.39,118.49-92.26,118.5-119.17,0-4.97,4.03-9,9-9h0c4.97,0,9,4.03,9,9,0,31.06-23.93,116.19-133.15,136.86-.56.11-1.13.16-1.68.16Z"/>
        <path class="cls-4" d="M121.03,841.89c-2.48,0-4.95-1.02-6.72-3.02-5.07-5.69-123.94-140.3-113.68-224.73,2.48-20.38,12.09-36.44,28.56-47.74,39.65-27.2,88.8-24.65,142.12,7.37,39.02,23.43,66.35,54.09,67.49,55.38,3.29,3.72,2.94,9.41-.78,12.7-3.72,3.29-9.41,2.95-12.7-.78-.42-.47-27-30.17-63.61-52.08-47.37-28.34-88.53-30.95-122.34-7.75-12.19,8.36-19.02,19.83-20.87,35.06-3.78,31.09,13.67,77.12,50.48,133.13,28.41,43.22,58.47,77.13,58.77,77.46,3.3,3.71,2.97,9.4-.74,12.71-1.72,1.53-3.85,2.28-5.98,2.28Z"/>
        <path class="cls-4" d="M34.38,911.58c-1.33,0-2.68-.3-3.96-.92-4.51-2.21-12.07-7.9-12.07-21.14,0-14.64,15.01-30.65,47.24-50.39,21.68-13.28,42.99-23.11,43.88-23.52,4.52-2.08,9.86-.1,11.94,4.42,2.08,4.52.1,9.86-4.42,11.94-.21.1-21.35,9.86-42.12,22.6-11.94,7.32-21.38,14.15-28.05,20.28-9.71,8.93-10.46,13.49-10.46,14.68,0,4,1.31,4.64,2.01,4.99,4.46,2.19,6.3,7.58,4.11,12.05-1.56,3.19-4.76,5.04-8.09,5.04Z"/>
        <path class="cls-4" d="M395.72,800.7c-91.9,0-163.06-28.38-194.4-43.49-4.48-2.16-6.36-7.54-4.2-12.02,2.16-4.48,7.53-6.36,12.01-4.2,39.79,19.18,146.51,60.67,277.76,31.8,4.86-1.07,9.66,2,10.72,6.86,1.07,4.85-2,9.66-6.86,10.72-33.42,7.35-65.32,10.32-95.04,10.32Z"/>
        <path class="cls-4" d="M142.42,460.44c-4.46,0-8.33-3.31-8.91-7.84l-4.06-31.31c-.64-4.93,2.84-9.44,7.77-10.08,4.92-.64,9.44,2.84,10.08,7.77l4.06,31.31c.64,4.93-2.84,9.44-7.77,10.08-.39.05-.78.08-1.17.08Z"/>
        <path class="cls-4" d="M640.61,981.42c-8.57,0-22.77-2.7-48.2-12.87-22.74-9.09-51.93-23.18-84.44-40.75-21.62-11.69-34.52-26.71-38.33-44.67-4.59-21.61,5.75-40.47,10.19-47.29v-62.92c0-4.97,4.03-9,9-9s9,4.03,9,9v68.79l-1.87,2.43c-.11.14-12.67,16.99-8.68,35.39,2.71,12.5,12.55,23.41,29.25,32.44,31.91,17.25,60.46,31.03,82.56,39.87,23.39,9.35,35.1,11.37,40.62,11.56-4.62-8.95-20.67-27.76-38.22-44.36-3.61-3.42-3.77-9.11-.35-12.72,3.42-3.61,9.11-3.77,12.72-.35.47.45,11.7,11.09,22.75,23.55,21.93,24.73,23.46,34.47,22.07,40.74-1.04,4.7-4.37,8.3-9.13,9.87-2.12.7-4.9,1.3-8.93,1.3ZM641.03,967.05h0,0Z"/>
        <g class="cls-2">
          <path class="cls-3" d="M479.62,783.72c-10.43,0-20.92-4.56-26.06-12.33-.83-1.26-1.85-2.63-3.04-4.22-10.56-14.18-28.24-37.91-21.25-116.43,3.04-34.11,15.5-62.52,38.08-86.86,19-20.47,41.98-34.39,60.44-45.58,6.07-3.68,11.8-7.15,16.75-10.46,25.97-17.37,33.54-85.97,34.27-110.94.14-4.97,4.31-8.87,9.25-8.74,4.97.14,8.88,4.28,8.74,9.25-.03.99-.75,24.63-5.95,51.61-7.26,37.7-19.48,62.53-36.3,73.78-5.28,3.53-11.18,7.11-17.43,10.9-18.41,11.16-39.28,23.8-56.57,42.43-19.77,21.3-30.68,46.23-33.35,76.21-6.39,71.67,8.73,91.96,17.75,104.08,1.29,1.74,2.51,3.38,3.62,5.05,2.12,3.21,10.42,5.92,16.64,3.2,1.45-.63,5.86-2.56,5.86-11.26,0-4.97,4.03-9,9-9s9,4.02,9,9h0c0,13.02-6.07,23.13-16.65,27.76-3.99,1.74-8.4,2.56-12.82,2.56Z"/>
        </g>
        <g class="cls-2">
          <path class="cls-3" d="M531.52,783.99c-4.5,0-9.36-1.2-14.36-3.61-12.58-6.08-24.51-19.06-32.72-35.61-6.7-13.5-14.14-35.93-11.51-66.11.43-4.95,4.81-8.61,9.75-8.19,4.95.43,8.62,4.8,8.18,9.75-2.27,26.01,4.03,45.11,9.7,56.55,6.38,12.85,15.51,23.1,24.43,27.4,4.05,1.96,7.6,2.34,9.05.98,3.22-3.04,4.76-11.83,4.78-16.8.03-4.95,4.05-8.96,9-8.96h.03c4.96.01,8.97,4.03,8.97,8.99,0,2.05-.29,20.28-10.42,29.86-4.05,3.83-9.17,5.76-14.88,5.77Z"/>
        </g>
        <g class="cls-2">
          <path class="cls-3" d="M573.84,713.87c-1.57,0-3.17-.41-4.62-1.28-4.26-2.55-5.65-8.08-3.1-12.35,4.94-8.24,6.47-24.48,4.32-45.74-1.74-17.25-5.3-31.86-5.34-32l-6.46-26.23c-1.19-4.83,1.76-9.7,6.59-10.89,4.83-1.19,9.7,1.76,10.89,6.59l6.46,26.24c1.6,6.5,15.17,64.28-1.02,91.3-1.69,2.82-4.67,4.38-7.73,4.38Z"/>
        </g>
        <g class="cls-2">
          <path class="cls-3" d="M575.96,759.98c-1.82,0-3.7-.1-5.64-.31-14.45-1.55-34.23-9.54-46.41-27.34-16.63-24.31-12.6-48.52-12.42-49.54.86-4.9,5.53-8.17,10.42-7.3,4.9.86,8.16,5.53,7.3,10.43-.11.68-2.79,18.21,9.55,36.25,8.73,12.76,23.48,18.54,33.46,19.6,7.3.78,10.84-.84,11.51-1.47,2.35-2.22,3.74-5.85,3.45-9.01-.24-2.7-1.65-4.85-4.28-6.56-18.33-11.93-28.08-32.4-28.49-33.26-2.11-4.5-.18-9.86,4.32-11.97,4.5-2.11,9.85-.18,11.96,4.31.16.33,8.14,16.81,22.02,25.84,7.25,4.72,11.65,11.83,12.39,20.03.78,8.63-2.67,17.72-9.01,23.71-4.57,4.33-11.61,6.61-20.15,6.61Z"/>
        </g>
        <path class="cls-4" d="M743.35,701.45c-19.93,0-38.84-4.48-52.75-8.95-4.73-1.52-7.34-6.59-5.82-11.32,1.52-4.73,6.59-7.34,11.32-5.82,17.09,5.49,42.46,11.04,66.33,6.31,26.72-5.29,45.96-22.61,57.19-51.46,15.67-40.29-2.73-80.23-22.21-122.52-12.42-26.96-25.26-54.83-28.89-83.33-4.2-33.04,4.71-62.32,27.26-89.51,3.63-4.38,7.68-8.77,12.03-13.06,3.54-3.48,9.24-3.44,12.73.1,3.49,3.54,3.44,9.24-.1,12.73-3.92,3.86-7.56,7.81-10.8,11.72-42.91,51.74-20.07,101.32,4.12,153.81,20.2,43.84,41.08,89.17,22.64,136.58-13.6,34.97-37.31,56.03-70.47,62.59-7.52,1.49-15.12,2.12-22.58,2.12Z"/>
        <path class="cls-4" d="M728.55,764.47c-17.2,0-33.93-2.6-49.72-7.73-4.73-1.54-7.31-6.61-5.78-11.34s6.62-7.31,11.34-5.78c14,4.55,28.85,6.85,44.16,6.85,18.14,0,58.1-5.31,92.77-25.21,39.94-22.93,60.2-57.15,60.2-101.72,0-62.04-27.03-106.69-48.75-142.57-27.01-44.61-50.33-83.14,6.6-122.43l7.37-5.09,5.12,7.35c4.21,6.04,7.65,11.06,10.41,15.1,3.81,5.56,7.05,10.3,9.16,13,3.62-7.47,9.48-25.63,14.5-52.22,5.21-27.54,6.01-46.28,4.94-54.03-9.9,2.83-33.13,10.32-57.5,19.13-32.57,11.78-48.13,18.94-55.49,22.92,4.74,2.14,11.54,4.87,18.93,7.84,2.86,1.15,5.95,2.39,9.27,3.73,4.61,1.87,6.83,7.11,4.96,11.72-1.86,4.61-7.11,6.83-11.72,4.96-3.3-1.34-6.37-2.57-9.22-3.72-10.57-4.25-18.2-7.31-23.37-9.94-3.88-1.97-11.96-6.08-11.96-14.44,0-7.31,6.05-12.43,24.9-21.09,10.98-5.04,25.89-11,44.32-17.73,18.14-6.62,64.18-22.49,70.48-22.49,2.92,0,10.04,1.11,13.09,11.44,1.16,3.94,1.73,9.1,1.73,15.77,0,17.03-3.95,44.45-10.07,69.85-2.96,12.27-6.12,22.81-9.15,30.46-3.66,9.23-8.2,17.78-16.6,17.78-10.45,0-13.44-4.37-26.04-22.76-1.48-2.16-3.16-4.61-5.05-7.35-19.27,15.53-20.85,28.13-19.86,37.61,1.64,15.68,12.76,34.05,25.64,55.33,22.88,37.79,51.35,84.82,51.35,151.89,0,50.76-23.94,91.34-69.24,117.34-35.49,20.37-76.99,27.6-101.73,27.6ZM895.44,277.46s0,0,0,0t0,0Z"/>
        <path class="cls-4" d="M358.24,596.86c-14.15,0-26.54-3.98-35.94-11.86-12.74-10.67-18.17-27.08-14.92-45.04,2.81-15.47,12.21-28.17,26.49-35.76,17.49-9.3,40.58-10.13,58.82-2.11,4.55,2,6.62,7.31,4.62,11.86-2,4.55-7.31,6.62-11.86,4.62-13.18-5.8-30.51-5.18-43.13,1.52-6.59,3.5-14.92,10.35-17.23,23.07-2.1,11.58,1.01,21.53,8.76,28.03,5.35,4.48,21.12,13.64,52.08,2.14,4.66-1.73,9.84.64,11.57,5.3,1.73,4.66-.64,9.84-5.3,11.57-11.96,4.44-23.45,6.65-33.97,6.65Z"/>
        <path class="cls-4" d="M47.62,925.39c-2.68,0-5.15-.31-7.44-.93-6.93-1.87-11.92-6.66-14.06-13.47-1-3.2-1.21-6.56-.6-9.97,2.02-11.47,13.13-23.14,33.95-35.67,14.09-8.48,27.53-14.23,28.09-14.47,4.57-1.95,9.86.18,11.81,4.75,1.95,4.57-.18,9.86-4.75,11.81-.13.05-12.99,5.57-26.03,13.44-22.06,13.3-24.98,21.18-25.35,23.28-.13.73-.04,1.17.05,1.47.29.92.5,1.19,1.58,1.48,1.12.3,3.78.65,8.92-.48,4.86-1.06,9.65,2.02,10.71,6.88,1.06,4.86-2.02,9.65-6.88,10.71-3.65.79-6.97,1.19-10.01,1.19Z"/>
        <g class="cls-2">
          <path class="cls-3" d="M383.51,558.62c-2.53,0-5.04-1.06-6.82-3.13-11.58-13.45-27.76-6.16-29.56-5.28-4.44,2.23-9.82.42-12.05-4.02-2.23-4.44-.41-9.86,4.03-12.09,10.36-5.2,34.41-9.88,51.23,9.65,3.24,3.77,2.82,9.45-.95,12.69-1.7,1.46-3.79,2.18-5.87,2.18Z"/>
        </g>
        <g class="cls-2">
          <path class="cls-3" d="M67.58,943.16c-10.7,0-16.88-2.84-19.71-8.71-3.41-7.06-3.62-14.71-.61-22.15,10.15-25.07,55.99-42.48,61.19-44.38,4.67-1.71,9.84.69,11.55,5.35,1.71,4.67-.69,9.83-5.35,11.54h0c-16.73,6.15-45.3,20.88-50.7,34.24-.85,2.1-1.02,3.96-.51,5.83,6.18,1.12,28.58-.94,67.86-14.51,38.29-13.23,71.84-30.41,89.75-45.95,6-5.21,15.75-15.11,13.56-22.92-13.18-46.9-62.29-141.69-97.31-187.83-3-3.96-2.23-9.6,1.73-12.61,3.96-3.01,9.61-2.23,12.61,1.73,36.72,48.39,86.41,144.4,100.3,193.85,4.45,15.82-5.56,32.54-29.74,49.7-17.69,12.54-43.29,25.46-72.1,36.38-22.18,8.4-44.12,14.84-61.77,18.12-8.26,1.54-15.12,2.32-20.73,2.32Z"/>
        </g>
        <g class="cls-2">
          <path class="cls-3" d="M98.24,484.2c-3.21,0-6.31-1.72-7.93-4.74-2.35-4.38-.71-9.83,3.67-12.19l71.33-38.34c-.07-5.16.25-13.03,2.14-21.76,4.44-20.58,15.38-36.28,31.64-45.41,14.11-7.92,13.78-17.74,11.56-32.97-1.47-10.08-3.29-22.62,8.19-28.9,7.49-4.09,15.89-3.77,23.07.86,13.97,9.01,20.98,32.19,18.77,62.02-.37,4.96-4.68,8.68-9.64,8.31-4.96-.37-8.68-4.69-8.31-9.64,1.89-25.4-4.16-41.43-10.57-45.56-1.59-1.03-2.87-1.12-4.48-.3-.5,1.81.27,7.08.78,10.62,2,13.73,5.35,36.72-20.56,51.26-11.67,6.55-19.33,17.66-22.75,33.01-2.72,12.21-1.63,22.59-1.62,22.69l.66,6.03-5.34,2.9-76.34,41.04c-1.36.73-2.82,1.07-4.25,1.07Z"/>
        </g>
        <g class="cls-2">
          <path class="cls-3" d="M141.56,577.53c-3.79,0-7.32-2.42-8.56-6.22-1.54-4.73,1.05-9.81,5.78-11.34,48.68-15.83,98.37-64.44,98.86-64.93l1.84-1.81,2.53-.56c.4-.09,40.34-9.14,82.12-29.83,37.51-18.58,84.33-50.64,94.31-97.87,1.03-4.86,5.81-7.97,10.67-6.94,4.86,1.03,7.97,5.8,6.94,10.67-5.13,24.28-18.6,46.9-40.03,67.24-16.72,15.87-38.33,30.41-64.24,43.2-38.05,18.8-73.67,28.16-83.35,30.51-9.87,9.4-56.26,51.9-104.09,67.45-.92.3-1.86.44-2.78.44Z"/>
        </g>
        <g class="cls-2">
          <path class="cls-3" d="M628.48,868.14c-1.65,0-3.32-.45-4.81-1.4-4.2-2.66-5.44-8.22-2.78-12.42.49-.77,48.72-77.4,62.1-145.45,9.47-48.15-23.07-85.4-57.31-99.63-4.59-1.91-6.76-7.18-4.86-11.77,1.91-4.59,7.17-6.77,11.76-4.86,40.79,16.95,79.49,61.65,68.07,119.72-14.04,71.41-62.5,148.37-64.56,151.61-1.71,2.7-4.63,4.18-7.61,4.18Z"/>
        </g>
        <g class="cls-2">
          <path class="cls-3" d="M676.17,982.47c-8.51,0-18.37-5.4-30.64-16.72-9.01-8.3-16.02-16.86-16.32-17.22-3.14-3.85-2.57-9.52,1.28-12.66,3.85-3.14,9.52-2.57,12.66,1.28.06.08,6.58,8.02,14.66,15.45,11.98,11.03,17.33,11.82,18.4,11.86.19-.26.56-.88.95-2.12,3.24-10.41-5.09-23.14-12.65-31.98-9.22-10.79-19.71-18.58-19.82-18.66-4-2.95-4.85-8.58-1.9-12.58,2.95-4,8.57-4.86,12.57-1.91.49.36,12.05,8.91,22.61,21.2,15.45,17.97,20.96,34.55,16.38,49.28-3.35,10.77-10.52,13.67-14.5,14.45-1.2.23-2.42.35-3.67.35Z"/>
        </g>
        <g class="cls-2">
          <path class="cls-3" d="M690.31,952.39c-2.86,0-5.87-.33-8.96-1.02-4.85-1.08-7.91-5.89-6.83-10.74,1.08-4.85,5.89-7.91,10.74-6.83,5.71,1.27,10.68.25,11.58-1.45.36-.68,7.97-17.45-63.85-84.66-3.63-3.4-3.82-9.09-.42-12.72,3.4-3.63,9.09-3.82,12.72-.42,28.5,26.67,48.52,49.16,59.49,66.83,10.46,16.85,13.07,29.73,7.98,39.38-3.94,7.46-12.3,11.65-22.45,11.65Z"/>
        </g>
        <g class="cls-2">
          <path class="cls-3" d="M258.25,111.52c-3.04,0-6.01-1.54-7.7-4.33-11.55-19.01-10.58-39.24-7.73-52.87,1.27-6.09,6.17-10.55,12.47-11.36,6.31-.81,12.4,2.39,15.18,7.98,2.91,5.84,5.95,10.98,9.28,15.71,3.8,5.39,8.06,10.3,12.66,14.57,3.64,3.39,3.84,9.08.46,12.72-3.39,3.64-9.08,3.84-12.72.46-5.5-5.12-10.59-10.97-15.11-17.38-2.08-2.95-4.05-6.01-5.94-9.26-.58,9.17.7,19.99,6.83,30.08,2.58,4.25,1.23,9.78-3.02,12.36-1.46.89-3.07,1.31-4.66,1.31Z"/>
        </g>
      </g>
    </g>
  </g>
</svg>